# xmcd
#
# Track frame offsets: 
#        150
#        21998
#        49733
#        68689
#        97306
#        122116
#        142683
#        166187
#        186539
#        214034
#
# Disc length: 3158 seconds
#
# Revision: 0
# Processed by: cddbd v1.5.2PL0 Copyright (c) Steve Scherf et al.
# Submitted via: ExactAudioCopy v0.95b3
#
DISCID=8f0c540a
DTITLE=Tino Gonzales - The Right Time
DYEAR=2012
DGENRE=Modern Electric Blues
TTITLE0=Hold On
TTITLE1=The Right Time
TTITLE2=I Can't Deny It
TTITLE3=Rule Of Heart
TTITLE4=Najat
TTITLE5=Wonderful
TTITLE6=Bumpin And Humpin
TTITLE7=One Real Love
TTITLE8=My Father Never Heard Me Play
TTITLE9=I Last Saw You In Paris
EXTD=
EXTT0=
EXTT1=
EXTT2=
EXTT3=
EXTT4=
EXTT5=
EXTT6=
EXTT7=
EXTT8=
EXTT9=
PLAYORDER=
